<mxfile host="app.diagrams.net" agent="Mozilla/5.0 (X11; Linux x86_64; rv:109.0) Gecko/20100101 Firefox/115.0" version="27.1.4">
  <diagram name="第 1 页" id="1DZnptIgUBYjkCtyQjSE">
    <mxGraphModel dx="1348" dy="787" grid="1" gridSize="10" guides="1" tooltips="1" connect="1" arrows="1" fold="1" page="1" pageScale="1" pageWidth="3300" pageHeight="4681" math="0" shadow="0">
      <root>
        <mxCell id="0" />
        <mxCell id="1" parent="0" />
        <mxCell id="9lZnTC0JRyicG2jKXbfs-3" style="edgeStyle=orthogonalEdgeStyle;rounded=0;orthogonalLoop=1;jettySize=auto;html=1;exitX=1;exitY=0.5;exitDx=0;exitDy=0;entryX=0;entryY=0.5;entryDx=0;entryDy=0;curved=1;" parent="1" source="9lZnTC0JRyicG2jKXbfs-1" target="9lZnTC0JRyicG2jKXbfs-2" edge="1">
          <mxGeometry relative="1" as="geometry" />
        </mxCell>
        <mxCell id="9lZnTC0JRyicG2jKXbfs-5" style="edgeStyle=orthogonalEdgeStyle;rounded=0;orthogonalLoop=1;jettySize=auto;html=1;entryX=0;entryY=0.5;entryDx=0;entryDy=0;curved=1;" parent="1" source="9lZnTC0JRyicG2jKXbfs-1" target="9lZnTC0JRyicG2jKXbfs-4" edge="1">
          <mxGeometry relative="1" as="geometry" />
        </mxCell>
        <mxCell id="9lZnTC0JRyicG2jKXbfs-18" style="edgeStyle=orthogonalEdgeStyle;rounded=0;orthogonalLoop=1;jettySize=auto;html=1;entryX=0;entryY=0.5;entryDx=0;entryDy=0;curved=1;" parent="1" source="9lZnTC0JRyicG2jKXbfs-1" target="9lZnTC0JRyicG2jKXbfs-15" edge="1">
          <mxGeometry relative="1" as="geometry" />
        </mxCell>
        <mxCell id="9lZnTC0JRyicG2jKXbfs-1" value="采购单审核" style="ellipse;whiteSpace=wrap;html=1;" parent="1" vertex="1">
          <mxGeometry x="510" y="504.75" width="120" height="80" as="geometry" />
        </mxCell>
        <mxCell id="9lZnTC0JRyicG2jKXbfs-9" value="" style="edgeStyle=orthogonalEdgeStyle;rounded=0;orthogonalLoop=1;jettySize=auto;html=1;curved=1;" parent="1" source="9lZnTC0JRyicG2jKXbfs-2" edge="1">
          <mxGeometry relative="1" as="geometry">
            <mxPoint x="849" y="285" as="targetPoint" />
          </mxGeometry>
        </mxCell>
        <mxCell id="9lZnTC0JRyicG2jKXbfs-2" value="1.分析业务需求" style="ellipse;whiteSpace=wrap;html=1;" parent="1" vertex="1">
          <mxGeometry x="680" y="246.49999999999994" width="120" height="80" as="geometry" />
        </mxCell>
        <mxCell id="9lZnTC0JRyicG2jKXbfs-11" value="" style="edgeStyle=orthogonalEdgeStyle;rounded=0;orthogonalLoop=1;jettySize=auto;html=1;curved=1;" parent="1" source="9lZnTC0JRyicG2jKXbfs-4" target="9lZnTC0JRyicG2jKXbfs-10" edge="1">
          <mxGeometry relative="1" as="geometry" />
        </mxCell>
        <mxCell id="9lZnTC0JRyicG2jKXbfs-14" style="edgeStyle=orthogonalEdgeStyle;rounded=0;orthogonalLoop=1;jettySize=auto;html=1;entryX=0;entryY=0.5;entryDx=0;entryDy=0;curved=1;" parent="1" source="9lZnTC0JRyicG2jKXbfs-4" target="9lZnTC0JRyicG2jKXbfs-12" edge="1">
          <mxGeometry relative="1" as="geometry" />
        </mxCell>
        <mxCell id="9lZnTC0JRyicG2jKXbfs-4" value="2.实体类" style="ellipse;whiteSpace=wrap;html=1;" parent="1" vertex="1">
          <mxGeometry x="680" y="523" width="120" height="80" as="geometry" />
        </mxCell>
        <mxCell id="9lZnTC0JRyicG2jKXbfs-10" value="采购单实体类" style="ellipse;whiteSpace=wrap;html=1;" parent="1" vertex="1">
          <mxGeometry x="850" y="463" width="120" height="80" as="geometry" />
        </mxCell>
        <mxCell id="9lZnTC0JRyicG2jKXbfs-12" value="审核记录实体类" style="ellipse;whiteSpace=wrap;html=1;" parent="1" vertex="1">
          <mxGeometry x="850" y="583" width="120" height="80" as="geometry" />
        </mxCell>
        <mxCell id="9lZnTC0JRyicG2jKXbfs-20" value="" style="edgeStyle=orthogonalEdgeStyle;rounded=0;orthogonalLoop=1;jettySize=auto;html=1;curved=1;" parent="1" source="9lZnTC0JRyicG2jKXbfs-15" target="9lZnTC0JRyicG2jKXbfs-19" edge="1">
          <mxGeometry relative="1" as="geometry" />
        </mxCell>
        <mxCell id="9lZnTC0JRyicG2jKXbfs-22" style="edgeStyle=orthogonalEdgeStyle;rounded=0;orthogonalLoop=1;jettySize=auto;html=1;entryX=0;entryY=0.5;entryDx=0;entryDy=0;curved=1;" parent="1" source="9lZnTC0JRyicG2jKXbfs-15" target="9lZnTC0JRyicG2jKXbfs-21" edge="1">
          <mxGeometry relative="1" as="geometry" />
        </mxCell>
        <mxCell id="9lZnTC0JRyicG2jKXbfs-24" style="edgeStyle=orthogonalEdgeStyle;curved=1;rounded=0;orthogonalLoop=1;jettySize=auto;html=1;entryX=0;entryY=0.5;entryDx=0;entryDy=0;" parent="1" source="9lZnTC0JRyicG2jKXbfs-15" target="9lZnTC0JRyicG2jKXbfs-23" edge="1">
          <mxGeometry relative="1" as="geometry" />
        </mxCell>
        <mxCell id="9lZnTC0JRyicG2jKXbfs-15" value="3.审核处理器" style="ellipse;whiteSpace=wrap;html=1;" parent="1" vertex="1">
          <mxGeometry x="680" y="763" width="120" height="80" as="geometry" />
        </mxCell>
        <mxCell id="9lZnTC0JRyicG2jKXbfs-19" value="抽象审核处理器" style="ellipse;whiteSpace=wrap;html=1;" parent="1" vertex="1">
          <mxGeometry x="850" y="703" width="120" height="80" as="geometry" />
        </mxCell>
        <mxCell id="9lZnTC0JRyicG2jKXbfs-21" value="审核处理器实现" style="ellipse;whiteSpace=wrap;html=1;" parent="1" vertex="1">
          <mxGeometry x="850" y="823" width="120" height="80" as="geometry" />
        </mxCell>
        <mxCell id="9lZnTC0JRyicG2jKXbfs-23" value="审核处理器构造器" style="ellipse;whiteSpace=wrap;html=1;" parent="1" vertex="1">
          <mxGeometry x="850" y="940" width="120" height="80" as="geometry" />
        </mxCell>
      </root>
    </mxGraphModel>
  </diagram>
</mxfile>
